<svg version="1.1" id="Layer_1" xmlns="http://www.w3.org/2000/svg" xmlns:xlink="http://www.w3.org/1999/xlink" x="0px" y="0px" viewBox="0 0 216.8763 230.4903" enable-background="new 0 0 216.8763 230.4903" xml:space="preserve">
<g>
	<path d="M61.7603,158.3795l10.5311,62.9412c0.8184,4.8887,5.0537,8.3516,9.8516,8.3516c0.5479,0,1.1035-0.0459,1.6621-0.1387
		c5.4473-0.9121,9.124-6.0664,8.2129-11.5137l-9.946-59.4446C77.5382,158.983,71.0271,159.0743,61.7603,158.3795z" id="id_116" style="fill: rgb(85, 206, 230);"></path>
	<path d="M31.1789,154.3434v66.1469c0,5.5234,4.4805,10,10,10c5.5234,0,10-4.4766,10-10v-63.1287
		c-0.6631-0.0762-1.3199-0.1504-2.0042-0.2334C42.0192,156.261,36.0946,155.3113,31.1789,154.3434z" id="id_117" style="fill: rgb(61, 212, 242);"></path>
	<path d="M79.7743,121.9938c-1.9895,1.2523-4.3469,1.6553-6.6393,1.1343c-0.1283-0.0292-0.2515-0.0753-0.3781-0.1102
		l-46.7244,27.1359c5.671,1.3556,13.2838,2.7575,23.5034,3.9961c34.0012,4.1206,40.5773-0.3708,40.5773-0.3708l-6.7678-36.216
		C82.682,119.3908,81.4463,120.9413,79.7743,121.9938z" id="id_118" style="fill: rgb(62, 210, 240);"></path>
	<path d="M50.8652,107.7087c-5.3474-2.8668-11.4424-5.9281-17.5054-8.752c-0.7063-0.3289-1.365-0.7492-1.9598-1.2511
		c-0.0316-0.0267-0.0591-0.0574-0.0903-0.0845l-13.2121,29.1184L50.8652,107.7087z" id="id_119" style="fill: rgb(61, 206, 235);"></path>
	<path d="M130.2055,60.1819c3.1611,0,5.9287-2.3096,6.4189-5.5225c0.6384-4.1783,1.5237-8.3292,2.5632-12.2418
		c-7.873,4.8253-14.7924,10.4115-20.3868,16.2388l10.5014,1.462C129.6059,60.1614,129.9076,60.1819,130.2055,60.1819z" id="id_120" style="fill: rgb(54, 198, 227);"></path>
	<path d="M149.5951,6.4358c-6.3761,0.741-11.7173,5.378-16.1826,14.0533c7.614-4.1506,15.439-7.3696,23.1262-9.5659
		C155.6186,8.0136,152.745,6.0638,149.5951,6.4358z" id="id_121" style="fill: rgb(62, 183, 207);"></path>
	<path d="M208.3151,23.8003c-5.1787-8.915-16.1631-13.625-30.8672-13.251c-14.1836,0.3584-30.3301,5.3965-45.4639,14.1855
		c-15.1338,8.79-27.5107,20.3174-34.8506,32.46c-7.6211,12.6074-8.9658,24.4609-3.7871,33.3779
		c0.0811,0.1396,0.1758,0.2686,0.2588,0.4062l-11.3828,6.6113c-2.5566-1.2959-5.6943-1.3164-8.3574,0.2295l-2.4226,1.407
		c2.7212,1.7224,4.8585,3.2524,6.552,4.6813c3.637,3.0687,5.54,5.9788,5.8901,9.1012c2.1287-1.5986,3.3531-4.0315,3.4785-6.5674
		l11.3721-6.6045c0.0264,0.0459,0.0469,0.0938,0.0732,0.1396c4.9893,8.5898,15.3428,13.2715,29.2607,13.2715
		c0.5303,0,1.0674-0.0068,1.6074-0.0205c14.1836-0.3584,30.3301-5.3965,45.4639-14.1855c15.1338-8.79,27.5098-20.3174,34.8496-32.46
		c7.6211-12.6064,8.9658-24.46,3.7881-33.377L208.3151,23.8003z M200.2497,54.5913c-6.9131,11.4365-18.6621,22.3467-33.083,30.7217
		c-26.2842,15.2656-54.0527,17.8232-66.0078,7.0107c-3.4678-15.7422,12.5156-38.5947,38.7988-53.8594
		c15.5527-9.0332,31.6279-13.6201,44.6396-13.6201c8.9648,0,16.4639,2.1885,21.3457,6.5908
		C207.3649,37.9976,205.4391,46.0063,200.2497,54.5913z" id="id_122" style="fill: rgb(62, 185, 209);"></path>
	<path d="M69.5747,121.3972c-0.0522-0.0421-0.11-0.0769-0.1613-0.1202c-1.2241-1.0328-2.1296-2.3552-2.6467-3.8563
		c-0.0383-0.0333-0.0771-0.0662-0.1174-0.1002c-2.1052-1.7764-6.771-4.6596-12.6995-7.9343L4.3581,138.188
		c-4.1797,2.4277-5.6006,7.7842-3.1729,11.9639l0.3662,0.6299c2.4277,4.1807,7.7842,5.6006,11.9639,3.1729L69.5747,121.3972z" id="id_123" style="fill: rgb(63, 191, 217);"></path>
	<path d="M164.6703,77.0068c-22.2139,14.3024-46.6022,16.325-55.844,4.9962c0.2618,0.5295,0.5428,1.0489,0.8658,1.5506
		c8.3121,12.91,33.7861,11.3127,56.8966-3.567c23.1113-14.8802,35.1086-37.4088,26.7966-50.3188
		c-0.2539-0.3943-0.5411-0.7603-0.8286-1.1254c-0.0784-0.0994-0.1458-0.2084-0.2256-0.3063
		c0.0471,0.0952,0.0837,0.1949,0.1289,0.291C198.6379,41.6519,186.7244,62.8072,164.6703,77.0068z" id="id_124" style="fill: rgb(61, 193, 219);"></path>
	<path d="M32.8832,95.9478c0.4336,0.3658,0.9181,0.6776,1.4465,0.9235c14.1416,6.5865,30.7425,15.6083,34.4568,19.2837
		c0.5852,2.2867,2.3989,4.1713,4.8584,4.7304c3.5005,0.7955,6.9836-1.3971,7.7791-4.8977
		c1.415-6.2262-3.6793-11.1174-21.7959-20.9295c-6.2823-3.403-12.5518-6.4944-16.3091-8.3062L41.9435,65.079l2.3157,0.1763
		l1.2701,20.0113c4.0264,1.9563,9.5969,4.7371,15.1945,7.7692c2.9755,1.6115,5.5557,3.0682,7.8115,4.4105l3.8228-2.2203
		c1.79-1.0391,3.8242-1.5879,5.8838-1.5879c0.2563,0,0.5125,0.0146,0.7683,0.0315c-0.1812-2.1259-0.2817-4.4545-0.2166-7.2081
		c0.2219-9.3413,7.8584-24.4037,11.8832-31.7206l2.4425,0.34l1.6564,0.2306c2.483-4.0552,5.5059-8.0364,8.9818-11.8745
		l-19.4712-2.7106c-5.7032,4.1469-13.1787,5.7435-20.4755,3.6829c-3.9956-1.1284-7.4629-3.2206-10.2263-5.9512
		c-2.2968,0.0416-4.4294,0.1964-6.3873,0.428c-1.8931,5.4946-4.4148,10.9121-9.2493,13.8928
		c-3.614,2.2285-6.8555,3.0867-9.6059,3.2395l0.5118,8.0639l1.7333,27.3087C30.7007,93.1828,31.5472,94.8205,32.8832,95.9478z" id="id_125" style="fill: rgb(58, 196, 224);"></path>
	<path d="M36.7415,50.821c6.6644-4.1088,8.5358-14.0867,11.1066-21.4052c-1.5864-4.4785-1.8596-9.4686-0.473-14.3787
		c0.0192-0.0681,0.0428-0.1339,0.0626-0.2017c-5.5692,1.802-10.8918,6.6207-13.5758,18.0389
		C30.0241,49.2007,23.8804,50.356,19.539,49.0189C15.1977,47.6816,23.7471,58.8323,36.7415,50.821z" id="id_126" style="fill: rgb(64, 176, 199);"></path>
	<path d="M87.184,32.6765c-0.0005,0-0.0005,0-0.0005,0c-4.2607,0-7.7588-3.2031-8.1367-7.4502
		c-0.0074-0.0842-0.0046-0.1667-0.0095-0.2505l-2.4149,0.2148c0.0099,0.0834,0.0264,0.1644,0.0338,0.2485
		c0.3994,4.4883-2.9282,8.4668-7.418,8.8672c-0.2456,0.0215-0.4888,0.0322-0.73,0.0322c-0.0005,0-0.0005,0-0.001,0
		c-4.2607,0-7.7588-3.2031-8.1367-7.4512c-0.0073-0.0836-0.0051-0.1665-0.01-0.2499l-10.6997,0.952
		c2.0254,6.8397,7.4028,12.5248,14.7749,14.6067c9.5657,2.7014,19.4448-1.5193,24.3037-9.6681
		c-0.2712,0.0519-0.5465,0.0913-0.8254,0.1161C87.6689,32.6658,87.4252,32.6765,87.184,32.6765z" id="id_127" style="fill: rgb(61, 173, 196);"></path>
	<path d="M49.5882,15.6623c-0.9122,3.2299-1.0343,6.4957-0.4838,9.5923l11.4695-1.0205c0.2917-1.2048,0.8508-2.3378,1.6697-3.3164
		c1.4014-1.6758,3.3706-2.7041,5.5454-2.8975c0.2451-0.0215,0.4888-0.0322,0.7305-0.0322c3.3423,0,6.2073,1.9748,7.4731,4.8743
		l3.2603-0.2901c0.8074-3.3065,3.6378-5.8954,7.2119-6.2141c0.2461-0.0215,0.4888-0.0322,0.7305-0.0322
		c1.5386,0,2.9745,0.4226,4.2031,1.1562C89.9173,9.7409,84.2235,3.1027,76.1221,0.8148
		C64.695-2.4124,52.8153,4.2352,49.5882,15.6623z" id="id_128" style="fill: rgb(58, 173, 196);"></path>
	<path d="M87.7104,30.3534c3.2314-0.2875,5.6189-3.1402,5.3313-6.3726c-0.2876-3.2314-3.1411-5.6187-6.3726-5.3312
		c-3.2314,0.2875-5.6188,3.1411-5.3313,6.3726C81.6254,28.2545,84.479,30.6409,87.7104,30.3534z" id="id_129" style="fill: rgb(53, 166, 189);"></path>
	<path d="M62.6615,26.6838c0.2876,3.2323,3.1414,5.6187,6.3726,5.3312c3.2314-0.2875,5.6189-3.1402,5.3313-6.3725
		c-0.2876-3.2314-3.1411-5.6188-6.3726-5.3312C64.7615,20.5987,62.3742,23.4524,62.6615,26.6838z" id="id_130" style="fill: rgb(55, 167, 189);"></path>
</g>
</svg>