<svg xmlns="http://www.w3.org/2000/svg" xmlns:xlink="http://www.w3.org/1999/xlink" version="1.1" x="0px" y="0px" viewBox="0 0 468 585" style="enable-background:new 0 0 468 468;" xml:space="preserve"><path d="M431.345,93.952c-42.786-17.858-88.163-29.753-134.955-35.423l1.314-17.519c0.166-2.206-0.927-4.316-2.824-5.454  L237.01,0.833c-1.853-1.111-4.167-1.111-6.019,0L173.12,35.556c-1.897,1.138-2.99,3.248-2.824,5.454l1.313,17.513  C124.834,64.19,79.457,76.087,36.654,93.952c-2.396,1-3.846,3.46-3.561,6.041l27.87,252.282c0.213,1.928,1.368,3.625,3.083,4.531  l135.441,71.517v3.587c0,19.9,15.482,36.09,34.513,36.09s34.513-16.19,34.513-36.09v-3.587l135.441-71.517  c1.733-0.915,2.894-2.638,3.089-4.588c4.641-46.206,9.361-86.796,13.925-126.05c4.57-39.298,9.296-79.935,13.945-126.232  C435.17,97.373,433.722,94.943,431.345,93.952z M234,12.672l51.767,31.061l-20.036,267.133H239.85V127.378  c0-3.231-2.619-5.85-5.85-5.85s-5.85,2.619-5.85,5.85v183.488h-25.882L182.233,43.732L234,12.672z M256.813,403.799h-45.625v-34.937  h45.625V403.799z M176.192,357.162v-34.596h115.616v34.596H176.192z M72.252,347.908L45.205,103.082  c40.459-16.461,83.229-27.5,127.28-32.883l18.05,240.667h-20.193c-3.231,0-5.85,2.619-5.85,5.85v46.296  c0,3.231,2.619,5.85,5.85,5.85h29.145v46.23L72.252,347.908z M234,456.3c-12.579,0-22.813-10.941-22.813-24.39v-16.411h45.625  v16.411C256.813,445.359,246.579,456.3,234,456.3z M409.347,224.816c-4.467,38.413-9.083,78.101-13.631,123.109l-127.203,67.167  v-46.23h29.145c3.231,0,5.85-2.619,5.85-5.85v-46.296c0-3.231-2.619-5.85-5.85-5.85h-20.193l18.05-240.661  c44.081,5.388,86.863,16.43,127.32,32.893C418.335,147.518,413.768,186.794,409.347,224.816z"/><text x="0" y="483" fill="#000000" font-size="5px" font-weight="bold" font-family="'Helvetica Neue', Helvetica, Arial-Unicode, Arial, Sans-serif">Created by QualityIcons</text><text x="0" y="488" fill="#000000" font-size="5px" font-weight="bold" font-family="'Helvetica Neue', Helvetica, Arial-Unicode, Arial, Sans-serif">from the Noun Project</text></svg>