<svg xmlns="http://www.w3.org/2000/svg" viewBox="0 0 30 37.5" x="0px" y="0px"><g fill="#000" fill-rule="evenodd"><path d="m15 27c-6.627417 0-12-5.372583-12-12s5.372583-12 12-12 12 5.372583 12 12-5.372583 12-12 12zm4.4389633-15.6014477 3.0082503-1.50412511c.4939785-.24698925.6942028-.84766229.4472136-1.34164079-.2469893-.49397849-.8476623-.69420284-1.3416408-.44721359l-5 2.49999999c-.7717555.3858777-.7253121 1.5024499.0758229 1.8229039l5 2c.5127835.2051134 1.094754-.0443025 1.2998674-.557086s-.0443025-1.094754-.557086-1.2998674zm-11.80982196 1.172971c-.51278352.2051134-.76219943.7870839-.55708602 1.2998674s.78708385.7621994 1.29986737.557086l5.00000001-2c.801135-.320454.8475784-1.4370262.0758229-1.8229039l-4.99999999-2.49999999c-.4939785-.24698925-1.09465154-.0467649-1.34164079.44721359-.24698925.4939785-.0467649 1.09465154.4472136 1.34164079l3.00825028 1.50412511zm-.12321428 4.4284732c-.32256612 0-.63653957.1039824-.89534043.2965208-.66466031.4944828-.80261638 1.434154-.30813779 2.0988175 2.2837995 3.0697745 5.18298326 4.6046617 8.69755116 4.6046617 3.5117269 0 6.4224523-1.5324067 8.7321762-4.5972202.1960503-.2601425.3020891-.5770347.3020891-.9027798 0-.828429-.6715745-1.5000034-1.5000035-1.5z"/><path d="m9.62866435 21.7006705c1.38730185-1.0524245 3.28216035-1.7006705 5.37133565-1.7006705s3.9840338.648246 5.3713357 1.7006705c-1.5849797.827029-3.4180991 1.2993295-5.3713357 1.2993295s-3.786356-.4723005-5.37133565-1.2993295z" transform="matrix(-1 0 0 -1 30 43)"/></g><text x="0" y="45" fill="#000000" font-size="5px" font-weight="bold" font-family="'Helvetica Neue', Helvetica, Arial-Unicode, Arial, Sans-serif">Created by Guilherme Schmitt</text><text x="0" y="50" fill="#000000" font-size="5px" font-weight="bold" font-family="'Helvetica Neue', Helvetica, Arial-Unicode, Arial, Sans-serif">from the Noun Project</text></svg>