<svg xmlns="http://www.w3.org/2000/svg" xmlns:xlink="http://www.w3.org/1999/xlink" viewBox="0 0 30 37.5" version="1.1" x="0px" y="0px"><title>Crime</title><desc>Created with Sketch.</desc><g stroke="none" stroke-width="1" fill="none" fill-rule="evenodd"><path d="M4,14.5 C4,7.5 7.57592773,4 12,4 C16.4240723,4 20,7.5 20,14.5 C20,16.9476815 19.1574952,19.8192209 17.4724857,23.114618 C17.2211011,23.6063479 17.4158931,24.2087762 17.9076036,24.4601987 C17.9110146,24.4619428 17.9144356,24.4636673 17.9178665,24.4653721 L18.6121745,24.810379 C18.8594277,24.93329 18.9602747,25.2333513 18.837403,25.480624 C18.7616139,25.6331455 18.6133943,25.7365938 18.4440923,25.7551311 C16.9531569,25.918377 14.8051261,26 12,26 C8.39244403,26 5.87168844,25.865 4.43773322,25.595 C4.53368766,25.2253697 4.56001055,25.2217265 4.58320613,25.2102005 L6.08214518,24.4653663 C6.57672128,24.2195927 6.77843017,23.6194255 6.53266859,23.1248434 C6.53096389,23.1214128 6.5292395,23.117992 6.52749549,23.1145812 C4.8424985,19.8191995 4,16.9476724 4,14.5 Z M6.42059624,11.1005465 C5.36729369,11.5218675 6.43900927,13.4105339 8.0147116,14.0858349 C9.59041394,14.7611359 11,13.3462144 11,12.4917195 C11,10.8976041 7.4738988,10.6792254 6.42059624,11.1005465 Z M17.5794038,11.1005465 C16.5261012,10.6792254 13,10.8976041 13,12.4917195 C13,13.3462144 14.4095861,14.7611359 15.9852884,14.0858349 C17.5609907,13.4105339 18.6327063,11.5218675 17.5794038,11.1005465 Z M12,17.0407715 C9,17.0407715 8.20820393,19.2489754 9,20.0407715 C9.79179607,20.8325676 14.2690728,20.7716987 15,20.0407715 C15.7309272,19.3098443 15,17.0407715 12,17.0407715 Z" fill="#000000"/><path d="M22.5,8 L27,9 L25,17.5 L22.5,17 L22.5,8 Z M23,22.9511565 C21.8954305,22.9511565 21,22.055726 21,20.9511565 C21,19.846587 21.8954305,18.9511565 23,18.9511565 C24.1045695,18.9511565 25,19.846587 25,20.9511565 C25,22.055726 24.1045695,22.9511565 23,22.9511565 Z" fill="#000000"/></g><text x="0" y="45" fill="#000000" font-size="5px" font-weight="bold" font-family="'Helvetica Neue', Helvetica, Arial-Unicode, Arial, Sans-serif">Created by Guilherme Schmitt</text><text x="0" y="50" fill="#000000" font-size="5px" font-weight="bold" font-family="'Helvetica Neue', Helvetica, Arial-Unicode, Arial, Sans-serif">from the Noun Project</text></svg>