<svg xmlns="http://www.w3.org/2000/svg" xmlns:xlink="http://www.w3.org/1999/xlink" viewBox="0 0 30 37.5" version="1.1" x="0px" y="0px"><title>Drama</title><desc>Created with Sketch.</desc><g stroke="none" stroke-width="1" fill="none" fill-rule="evenodd"><path d="M4.49975713,5.20796789 C6.19113111,5.56235602 7.77203276,5.73955008 9.24246208,5.73955008 C10.7996938,5.73955008 12.717665,5.49905712 14.9963757,5.01807119 C15.5367514,4.90401651 16.0672762,5.2496116 16.1813374,5.78998594 C16.1979253,5.8685726 16.204985,5.94887151 16.2023638,6.02914698 C16.0082337,11.9744667 15.7461492,15.8829985 15.4161103,17.7547423 C14.8861028,20.7605641 12.8829596,21.3777815 9.74836082,21.3777815 C6.61376207,21.3777815 4.99797023,19.5247328 4.40091801,17.9283905 C4.02661612,16.9276172 3.65834409,13.0314808 3.29610192,6.23998123 C3.26668104,5.6884779 3.68991676,5.21754963 4.24142035,5.18813376 C4.32802837,5.1835143 4.41486935,5.19018162 4.49975713,5.20796789 Z M5.24246208,11.7395501 C5.74246208,11.4062167 6.24246208,11.2395501 6.74246208,11.2395501 C7.24246208,11.2395501 7.74246208,11.4062167 8.24246208,11.7395501 C8.24246208,10.0728834 7.74246208,9.23955008 6.74246208,9.23955008 C5.74246208,9.23955008 5.24246208,10.0728834 5.24246208,11.7395501 Z M10.8542119,11.8474181 C11.3542119,11.5140847 11.8542119,11.3474181 12.3542119,11.3474181 C12.8542119,11.3474181 13.3542119,11.5140847 13.8542119,11.8474181 C13.8542119,10.1807514 13.3542119,9.34741808 12.3542119,9.34741808 C11.3542119,9.34741808 10.8542119,10.1807514 10.8542119,11.8474181 Z M6.87962948,14.3796209 C6.51293678,14.2031562 6.07588143,14.2665087 5.7743864,14.5398291 C5.36522376,14.9107556 5.33422726,15.5431429 5.70515379,15.9523055 L5.70513207,15.9523252 C7.47160293,17.9008887 9.03182569,18.7599299 10.3858004,18.5294488 C11.689143,18.3075866 12.8989312,17.4405123 14.015165,15.9282259 C14.2355022,15.6297106 14.2724459,15.2337384 14.1111329,14.8996157 C13.8710188,14.4022744 13.273193,14.1937506 12.7758517,14.4338647 L12.7758408,14.4338421 C11.4924991,15.0534337 10.5443391,15.3739324 9.93136091,15.395338 C9.34642299,15.4157645 8.32917919,15.0771921 6.87962948,14.3796209 Z" fill="#000000" transform="translate(9.748776, 13.187046) rotate(-10.000000) translate(-9.748776, -13.187046) "/><path d="M15.4419539,22.8248247 C16.8430227,21.8221083 17.4983175,20.4003969 17.13369,18.0451109 C16.941065,16.800863 16.4987665,14.8614184 15.8067943,12.2267771 C15.8929093,12.2021796 15.9837892,12.1888313 16.0777513,12.1884292 C16.1727999,12.1880225 16.2674211,12.2011687 16.3587589,12.2274712 C17.9243836,12.6783223 19.3474015,12.9261043 20.6278127,12.9708173 C21.9487187,13.0169443 23.5060184,12.9027626 25.2997118,12.6282721 L25.2997183,12.6283144 C25.8456242,12.5447739 26.3558914,12.9195952 26.4394318,13.4655011 C26.4515637,13.5447785 26.4541142,13.6252274 26.4470282,13.705114 C26.0038687,18.701266 25.6067478,22.0932901 25.2556654,23.8811864 C24.6849438,26.7876012 22.1898424,26.8979278 19.5641871,26.3013257 C16.9385318,25.7047235 16.0334916,24.9626137 15.5597573,23.3919371 C15.5177374,23.2526194 15.4784696,23.0635819 15.4419539,22.8248247 Z M22.430761,17.4484168 C22.3602388,17.4912206 22.2966804,17.5445621 22.242292,17.60659 C21.9478053,17.9424403 21.9813371,18.4534295 22.3171875,18.7479162 L22.3173913,18.748095 C22.8111788,19.1810671 23.5287069,19.2438427 24.0901775,18.9031937 C24.1607816,18.8603575 24.2244077,18.8069591 24.2788421,18.7448562 C24.5732295,18.4089972 24.53961,17.8980815 24.203751,17.6036942 L24.2031393,17.603158 C23.7093953,17.1703812 22.9920322,17.1077503 22.430761,17.4484168 Z M18.3235732,17.0864663 C18.2530509,17.1292701 18.1894926,17.1826117 18.1351042,17.2446395 C17.8406175,17.5804899 17.8741493,18.091479 18.2099997,18.3859658 L18.2102035,18.3861445 C18.703991,18.8191166 19.4215191,18.8818922 19.9829896,18.5412432 C20.0535938,18.498407 20.1172198,18.4450087 20.1716543,18.3829058 C20.4660417,18.0470467 20.4324222,17.5361311 20.0965632,17.2417437 L20.0959515,17.2412076 C19.6022074,16.8084307 18.8848444,16.7457998 18.3235732,17.0864663 Z M16.8248216,22.8491168 C16.6094803,23.5293982 18.547561,21.786889 20.4199817,22.1159206 C22.2924025,22.4449522 23.380724,24.5395793 23.5011731,24.1590707 C23.6216221,23.7785621 22.6009194,21.393837 20.8078523,21.0420228 C19.0147851,20.6902086 17.0341692,22.1877703 16.8248216,22.8491168 Z" fill="#000000" transform="translate(20.946446, 19.389773) rotate(9.000000) translate(-20.946446, -19.389773) "/></g><text x="0" y="45" fill="#000000" font-size="5px" font-weight="bold" font-family="'Helvetica Neue', Helvetica, Arial-Unicode, Arial, Sans-serif">Created by Guilherme Schmitt</text><text x="0" y="50" fill="#000000" font-size="5px" font-weight="bold" font-family="'Helvetica Neue', Helvetica, Arial-Unicode, Arial, Sans-serif">from the Noun Project</text></svg>