<svg xmlns="http://www.w3.org/2000/svg" xmlns:xlink="http://www.w3.org/1999/xlink" viewBox="0 0 30 37.5" version="1.1" x="0px" y="0px"><title>Horror</title><desc>Created with Sketch.</desc><g stroke="none" stroke-width="1" fill="none" fill-rule="evenodd"><path d="M8,11 C8.5,7.5 9.02246094,3 15,3 C20.9775391,3 21.5,7 22,11 C22.3012193,13.409754 22.8746376,18.2693002 23.7202551,25.5786384 C23.7503198,25.8386513 23.5639244,26.0738171 23.3039134,26.1038978 C23.1119941,26.1261009 22.9258087,26.0295847 22.8333333,25.8599548 L22.0044683,24.3395475 C21.872292,24.0970933 21.568594,24.0076954 21.3261398,24.1398717 C21.2765602,24.1669006 21.2319173,24.2021328 21.1941059,24.2440731 L18.7046936,27.0053242 C18.5197883,27.2104209 18.2036292,27.2267891 17.9985326,27.0418838 C17.9857237,27.0303359 17.9735209,27.0181331 17.961973,27.0053242 L15.3713603,24.1318218 C15.186455,23.9267251 14.8702959,23.9103569 14.6651993,24.0952622 C14.6523904,24.1068101 14.6401876,24.1190129 14.6286397,24.1318218 L12.038027,27.0053242 C11.8531216,27.2104209 11.5369626,27.2267891 11.3318659,27.0418838 C11.3190571,27.0303359 11.3068542,27.0181331 11.2953064,27.0053242 L8.80589412,24.2440731 C8.62098878,24.0389765 8.30482972,24.0226082 8.09973309,24.2075136 C8.05779271,24.245325 8.0225605,24.2899679 7.99553166,24.3395475 L7.16666667,25.8599548 C7.04004581,26.0922186 6.74911235,26.177859 6.51684861,26.0512382 C6.34597867,25.9580868 6.24845568,25.7708102 6.2701361,25.5774099 C7.12101991,17.9756482 7.69764121,13.1165115 8,11 Z M12.5003255,9 C11.6718984,9 11.0003255,9.67157288 11.0003255,10.5 L11.0003255,12.5 C11.0003255,13.3284271 11.6718984,14 12.5003255,14 C13.3287527,14 14.0003255,13.3284271 14.0003255,12.5 L14.0003255,10.5 C14.0003255,9.67157288 13.3287527,9 12.5003255,9 Z M17.5003255,9 C16.6718984,9 16.0003255,9.67157288 16.0003255,10.5 L16.0003255,12.5 C16.0003255,13.3284271 16.6718984,14 17.5003255,14 C18.3287527,14 19.0003255,13.3284271 19.0003255,12.5 L19.0003255,10.5 C19.0003255,9.67157288 18.3287527,9 17.5003255,9 Z M15,21 C16.3807119,21 17.5,19.8807119 17.5,18.5 C17.5,17.1192881 16.3807119,16 15,16 C13.6192881,16 12.5,17.1192881 12.5,18.5 C12.5,19.8807119 13.6192881,21 15,21 Z M6.30545915,16.6938849 C5.52838063,16.3497212 4.76220532,15.7251761 4.0069332,14.8202495 C2.26962852,12.7508995 3.0069332,9.99176612 4.5069332,11.3713328 C5.19341526,12.002698 5.95844024,12.4173527 6.80200816,12.6152971 C6.66226391,13.7171054 6.49674758,15.0766347 6.30545915,16.6938849 Z M23.1774418,12.621663 C24.0318842,12.4263244 24.8060703,12.0095477 25.5,11.3713328 C27,9.99176612 27.7373047,12.7508995 26,14.8202495 C25.2327434,15.7395352 24.4542349,16.3694708 23.6644744,16.7100563 C23.4764858,15.1164592 23.3141416,13.7536615 23.1774418,12.621663 Z" fill="#000000"/></g><text x="0" y="45" fill="#000000" font-size="5px" font-weight="bold" font-family="'Helvetica Neue', Helvetica, Arial-Unicode, Arial, Sans-serif">Created by Guilherme Schmitt</text><text x="0" y="50" fill="#000000" font-size="5px" font-weight="bold" font-family="'Helvetica Neue', Helvetica, Arial-Unicode, Arial, Sans-serif">from the Noun Project</text></svg>