<svg xmlns="http://www.w3.org/2000/svg" viewBox="0 0 30 37.5" x="0px" y="0px"><g fill-rule="evenodd" transform="translate(5 4)"><path d="m8.75333241 6.06364311c-.27999938-.64137432-.41999908-1.2625887-.41999908-1.86364311 0-2.31959595 1.56700338-4.2 3.49999997-4.2.8964135 0 1.7141175.404395 2.3333334 1.06945089.6192159-.66505589 1.4369198-1.06945089 2.3333333-1.06945089 1.9329966 0 3.5 1.88040405 3.5 4.2 0 1.7061762-1.1280991 3.57479866-3.3842973 5.6058674-.6655648-2.64146714-2.739991-4.56795236-5.195964-4.56795236-.9692819 0-1.87913445.30006733-2.66640629.82572807z"/><path d="m.41666667 12.0675545c0-2.86500724 2.01471862-5.1875545 4.5-5.1875545 1.15253165 0 2.20386526.49948121 3 1.32091304.79613474-.82143183 1.84746834-1.32091304 3.00000003-1.32091304 2.4852813 0 4.5 2.32254726 4.5 5.1875545 0 2.6550231-2.3022571 5.6285284-6.90677118 8.920516-.35480501.2536671-.83163914.2536671-1.18644871.0000064-4.6045201-3.2919901-6.90678014-6.2654976-6.90678014-8.9205224z"/></g><text x="0" y="45" fill="#000000" font-size="5px" font-weight="bold" font-family="'Helvetica Neue', Helvetica, Arial-Unicode, Arial, Sans-serif">Created by Guilherme Schmitt</text><text x="0" y="50" fill="#000000" font-size="5px" font-weight="bold" font-family="'Helvetica Neue', Helvetica, Arial-Unicode, Arial, Sans-serif">from the Noun Project</text></svg>